<svg width="33" height="33" viewBox="0 0 33 33" fill="white" xmlns="http://www.w3.org/2000/svg">
<circle cx="16.5" cy="16.5" r="12.4" fill="white" stroke="#E5540B" stroke-width="0.2"/>
<path d="M31.2209 9.73128C29.702 6.47409 27.1308 3.82311 23.9215 2.2055C20.7123 0.587892 17.0518 0.09786 13.5301 0.814368C10.0083 1.53088 6.83036 3.41219 4.50825 6.15518C2.18615 8.89816 0.855144 12.3431 0.729718 15.9348C0.604291 19.5265 1.69175 23.0558 3.81685 25.9541C5.94196 28.8524 8.98096 30.9508 12.4442 31.9112C15.9073 32.8717 19.593 32.6382 22.9073 31.2484C26.2216 29.8586 28.9715 27.3934 30.7139 24.2501L30.0142 23.8623C28.3589 26.8484 25.7466 29.1903 22.598 30.5106C19.4494 31.8309 15.948 32.0528 12.6579 31.1403C9.36791 30.2279 6.48086 28.2344 4.46201 25.4811C2.44316 22.7277 1.41008 19.3748 1.52923 15.9627C1.64839 12.5506 2.91284 9.27791 5.11884 6.67208C7.32484 4.06624 10.3439 2.27899 13.6896 1.59831C17.0352 0.917625 20.5127 1.38316 23.5615 2.91989C26.6103 4.45662 29.0529 6.97505 30.4959 10.0694L31.2209 9.73128Z" fill="#E5540B"/>
<rect x="29.0182" y="22.2222" width="2.66667" height="2.66667" transform="rotate(-23.5012 29.0182 22.2222)" fill="#E5540B"/>
<path d="M16.2659 12.8722L12.7739 23.7622H11.5679L8.05791 12.8722C7.94991 12.5122 7.86591 12.3022 7.80591 12.2422C7.75791 12.1702 7.63791 12.1222 7.44591 12.0982L6.54591 12.0082V11.5222H10.7759V12.0082L9.85791 12.0982C9.66591 12.1222 9.55791 12.1702 9.53391 12.2422C9.52191 12.3142 9.56991 12.5242 9.67791 12.8722L12.6479 22.1962L15.6179 12.8722C15.7379 12.5242 15.7859 12.3142 15.7619 12.2422C15.7499 12.1702 15.6419 12.1222 15.4379 12.0982L14.5199 12.0082V11.5222H17.7779V12.0082L16.8599 12.0982C16.7399 12.1102 16.6499 12.1342 16.5899 12.1702C16.5419 12.1942 16.4939 12.2602 16.4459 12.3682C16.4099 12.4642 16.3499 12.6322 16.2659 12.8722Z" fill="black"/>
<path d="M20.84 12.0262V11.5222H25.772V12.0262L24.782 12.1522C24.59 12.1762 24.476 12.2302 24.44 12.3142C24.404 12.3862 24.386 12.6262 24.386 13.0342V20.2702C24.386 20.9542 24.272 21.5782 24.044 22.1422C23.816 22.6942 23.444 23.1322 22.928 23.4562C22.412 23.7802 21.722 23.9422 20.858 23.9422C20.414 23.9422 19.976 23.8702 19.544 23.7262C19.124 23.5702 18.758 23.2942 18.446 22.8982C18.146 22.5022 17.948 21.9382 17.852 21.2062L19.094 20.8462C19.13 21.5062 19.226 22.0162 19.382 22.3762C19.538 22.7242 19.736 22.9702 19.976 23.1142C20.216 23.2462 20.474 23.3122 20.75 23.3122C21.026 23.3122 21.272 23.2402 21.488 23.0962C21.716 22.9522 21.896 22.6882 22.028 22.3042C22.16 21.9202 22.226 21.3622 22.226 20.6302V13.0342C22.226 12.6262 22.208 12.3862 22.172 12.3142C22.136 12.2302 22.022 12.1762 21.83 12.1522L20.84 12.0262Z" fill="#008040"/>
</svg>
